<svg width="24" height="24" viewBox="0 0 24 24" fill="none" xmlns="http://www.w3.org/2000/svg">
<path fill-rule="evenodd" clip-rule="evenodd" d="M6.5 4C6.22386 4 6 4.22386 6 4.5V19.5C6 19.7761 6.22386 20 6.5 20H17.5C17.7761 20 18 19.7761 18 19.5V8H15C14.4477 8 14 7.55228 14 7V4H6.5ZM4 4.5C4 3.11929 5.11929 2 6.5 2H14.3787C15.0417 2 15.6776 2.26339 16.1464 2.73223L19.2678 5.85355C19.7366 6.3224 20 6.95828 20 7.62132V19.5C20 20.8807 18.8807 22 17.5 22H6.5C5.11929 22 4 20.8807 4 19.5V4.5ZM8.65001 14.35V12.65H11.35V14.35H8.65001ZM12.65 14.35V12.65H15.35V14.35H12.65ZM12.65 15.65H15.35V17.35H12.65V15.65ZM11.35 15.65V17.35H8.65001V15.65H11.35ZM8.50001 11.35C7.86488 11.35 7.35001 11.8648 7.35001 12.5V17.5C7.35001 18.1351 7.86488 18.65 8.50001 18.65H15.5C16.1351 18.65 16.65 18.1351 16.65 17.5V12.5C16.65 11.8648 16.1351 11.35 15.5 11.35H8.50001Z" fill="#008892"/>
</svg>
