<svg width="24" height="24" viewBox="0 0 24 24" fill="none" xmlns="http://www.w3.org/2000/svg">
<path fill-rule="evenodd" clip-rule="evenodd" d="M12 2C6.47853 2 2 6.59119 2 12.2516C2 16.7799 4.88344 20.6164 8.80982 22C9.30061 22.0629 9.48466 21.7484 9.48466 21.4969C9.48466 21.2453 9.48466 20.6164 9.48466 19.7358C6.72393 20.3648 6.11043 18.3522 6.11043 18.3522C5.68098 17.1572 5.00614 16.8428 5.00614 16.8428C4.08589 16.2138 5.06748 16.2138 5.06748 16.2138C6.04908 16.2767 6.60123 17.283 6.60123 17.283C7.52147 18.8553 8.93252 18.4151 9.48466 18.1635C9.54601 17.4717 9.85276 17.0314 10.0982 16.7799C7.88957 16.5283 5.55828 15.6478 5.55828 11.6855C5.55828 10.5535 5.92638 9.67296 6.60123 8.91824C6.53988 8.72956 6.17178 7.66038 6.72393 6.27673C6.72393 6.27673 7.58282 6.02516 9.48466 7.34591C10.2822 7.09434 11.1411 7.03145 12 7.03145C12.8589 7.03145 13.7178 7.15723 14.5153 7.34591C16.4172 6.02516 17.2761 6.27673 17.2761 6.27673C17.8282 7.66038 17.4601 8.72956 17.3988 8.98113C18.0123 9.67296 18.4417 10.6164 18.4417 11.7484C18.4417 15.7107 16.1104 16.5283 13.9018 16.7799C14.2699 17.0943 14.5767 17.7233 14.5767 18.6667C14.5767 20.0503 14.5767 21.1195 14.5767 21.4969C14.5767 21.7484 14.7607 22.0629 15.2515 22C19.2393 20.6164 22.0614 16.7799 22.0614 12.2516C22 6.59119 17.5215 2 12 2Z" fill="#333333"/>
</svg>
