<svg width="300" height="493" viewBox="0 0 300 493" fill="none" xmlns="http://www.w3.org/2000/svg">
<g clip-path="url(#clip0_5_1293)">
<path d="M292.904 236.155L294.315 236.946V232.159L292.904 232.95V237.779L294.315 236.946" stroke="black" stroke-width="1.44" stroke-linecap="round" stroke-linejoin="round"/>
<path d="M184.714 169.544C184.714 170.238 185.205 170.529 185.807 170.175C186.127 169.965 186.393 169.684 186.586 169.352C186.778 169.021 186.89 168.65 186.914 168.267C186.914 167.573 186.423 167.282 185.821 167.636C185.501 167.846 185.235 168.127 185.043 168.458C184.851 168.79 184.738 169.161 184.714 169.544" stroke="black" stroke-width="1.44" stroke-linecap="round" stroke-linejoin="round"/>
<path d="M192.392 161.891L193.761 162.682L192.392 163.515" stroke="black" stroke-width="1.44" stroke-linecap="round" stroke-linejoin="round"/>
<path d="M192.392 163.515V158.686L193.761 157.895V162.682" stroke="black" stroke-width="1.44" stroke-linecap="round" stroke-linejoin="round"/>
<path d="M171.601 472.644L166.04 469.397V434.887L171.601 425.271" stroke="black" stroke-width="1.44" stroke-linecap="round" stroke-linejoin="round"/>
<path d="M278.005 406.58L167.783 470.438" stroke="black" stroke-width="1.44" stroke-linecap="round" stroke-linejoin="round"/>
<path d="M283.566 396.964L278.005 406.58L281.823 408.787L171.601 472.644" stroke="black" stroke-width="1.44" stroke-linecap="round" stroke-linejoin="round"/>
<path d="M283.566 362.413V396.964L287.384 399.171L281.823 408.787" stroke="black" stroke-width="1.44" stroke-linecap="round" stroke-linejoin="round"/>
<path d="M171.601 425.271L281.823 361.414L287.384 364.619V399.171" stroke="black" stroke-width="1.44" stroke-linecap="round" stroke-linejoin="round"/>
<path d="M284.189 240.395C284.189 241.088 284.68 241.38 285.282 241.026C285.601 240.816 285.868 240.535 286.06 240.203C286.252 239.872 286.364 239.5 286.388 239.118C286.388 238.424 285.897 238.133 285.295 238.487C284.976 238.696 284.709 238.978 284.517 239.309C284.325 239.64 284.213 240.012 284.189 240.395" stroke="black" stroke-width="1.44" stroke-linecap="round" stroke-linejoin="round"/>
<path d="M195.172 155.48L198.99 153.274V161.308L195.172 163.515V155.48Z" stroke="black" stroke-width="1.44" stroke-linecap="round" stroke-linejoin="round"/>
<path d="M292.904 300.387L294.315 301.22L292.904 302.011V297.182" stroke="black" stroke-width="1.44" stroke-linecap="round" stroke-linejoin="round"/>
<path d="M292.904 297.182L294.315 296.391V301.22" stroke="black" stroke-width="1.44" stroke-linecap="round" stroke-linejoin="round"/>
<path d="M200.36 157.27L201.771 158.061L200.36 158.894V154.065L201.771 153.274V158.061" stroke="black" stroke-width="1.44" stroke-linecap="round" stroke-linejoin="round"/>
<path d="M227.417 351.382L228.787 352.173L224.637 354.587V353.005L228.787 350.591V352.173" stroke="black" stroke-width="1.44" stroke-linecap="round" stroke-linejoin="round"/>
<path d="M292.904 364.619L294.315 365.452L292.904 366.243V361.414L294.315 360.623V365.452" stroke="black" stroke-width="1.44" stroke-linecap="round" stroke-linejoin="round"/>
<path d="M180.855 236.024C180.855 269.277 204.122 282.751 232.826 266.121C261.53 249.49 284.804 209.056 284.811 175.802C284.818 142.548 261.544 129.074 232.812 145.705C204.081 162.335 180.834 202.77 180.827 236.024" stroke="black" stroke-width="1.44" stroke-linecap="round" stroke-linejoin="round"/>
<path d="M194.211 268.591C214.76 278.137 246.203 258.975 265.763 224.985C285.323 190.996 286.139 154.1 267.623 141.036" stroke="black" stroke-width="1.44" stroke-linecap="round" stroke-linejoin="round"/>
<path d="M254.102 310.42L257.919 312.626L237.087 324.698V320.286L257.919 308.213V312.626" stroke="black" stroke-width="1.44" stroke-linecap="round" stroke-linejoin="round"/>
<path d="M212.478 334.522L216.295 336.729L195.504 348.759V344.347L216.295 332.316V336.729" stroke="black" stroke-width="1.44" stroke-linecap="round" stroke-linejoin="round"/>
<path d="M292.904 107.692L294.315 108.482L292.904 109.315" stroke="black" stroke-width="1.44" stroke-linecap="round" stroke-linejoin="round"/>
<path d="M292.904 109.315V104.486L294.315 103.695V108.482" stroke="black" stroke-width="1.44" stroke-linecap="round" stroke-linejoin="round"/>
<path d="M227.417 342.14L228.787 342.973L224.637 345.346V343.764" stroke="black" stroke-width="1.44" stroke-linecap="round" stroke-linejoin="round"/>
<path d="M224.637 343.764L228.787 341.349V342.973" stroke="black" stroke-width="1.44" stroke-linecap="round" stroke-linejoin="round"/>
<path d="M236.962 344.097L237.087 344.138L216.295 356.211" stroke="black" stroke-width="1.44" stroke-linecap="round" stroke-linejoin="round"/>
<path d="M216.295 356.211V351.798L237.087 339.726V344.138" stroke="black" stroke-width="1.44" stroke-linecap="round" stroke-linejoin="round"/>
<path d="M165.251 308.463C165.251 309.157 165.742 309.448 166.344 309.095C166.664 308.885 166.93 308.603 167.122 308.272C167.314 307.941 167.427 307.569 167.451 307.187C167.451 306.493 166.959 306.201 166.358 306.555C166.038 306.765 165.772 307.047 165.579 307.378C165.387 307.709 165.275 308.081 165.251 308.463" stroke="black" stroke-width="1.44" stroke-linecap="round" stroke-linejoin="round"/>
<path d="M233.31 292.561L237.087 294.768V290.355L216.295 302.386V306.84L237.087 294.768" stroke="black" stroke-width="1.44" stroke-linecap="round" stroke-linejoin="round"/>
<path d="M292.904 171.923L294.315 172.714V167.927L292.904 168.718V173.547L294.315 172.714" stroke="black" stroke-width="1.44" stroke-linecap="round" stroke-linejoin="round"/>
<path d="M284.189 111.931C284.189 112.624 284.68 112.916 285.282 112.562C285.601 112.352 285.868 112.071 286.06 111.739C286.252 111.408 286.364 111.037 286.388 110.654C286.388 109.96 285.897 109.669 285.295 110.023C284.976 110.232 284.709 110.514 284.517 110.845C284.325 111.177 284.213 111.548 284.189 111.931" stroke="black" stroke-width="1.44" stroke-linecap="round" stroke-linejoin="round"/>
<path d="M295.684 84.7962L299.502 87.0025L178.365 157.187" stroke="black" stroke-width="1.44" stroke-linecap="round" stroke-linejoin="round"/>
<path d="M150.104 426.062V490.294L153.922 492.5L295.684 410.41V314.041L299.502 311.835V279.74L295.684 281.946V249.809L299.502 247.603V215.466L295.684 217.714V185.577L299.502 183.371V151.234L295.684 153.441V121.346L299.502 119.139V87.0024" stroke="black" stroke-width="1.44" stroke-linecap="round" stroke-linejoin="round"/>
<path d="M150.104 426.062L153.922 428.269V492.5" stroke="black" stroke-width="1.44" stroke-linecap="round" stroke-linejoin="round"/>
<path d="M168.737 196.442L150.104 329.693L153.922 331.9L157.74 329.693V426.062L153.922 428.269" stroke="black" stroke-width="1.44" stroke-linecap="round" stroke-linejoin="round"/>
<path d="M178.365 157.187L153.922 331.9" stroke="black" stroke-width="1.44" stroke-linecap="round" stroke-linejoin="round"/>
<path d="M74.5331 293.352L70.7152 295.559L91.5064 307.631V303.218" stroke="black" stroke-width="1.44" stroke-linecap="round" stroke-linejoin="round"/>
<path d="M91.5064 303.218L70.7152 291.146V295.559" stroke="black" stroke-width="1.44" stroke-linecap="round" stroke-linejoin="round"/>
<path d="M122.147 387.334C122.119 386.83 121.973 386.339 121.721 385.901C121.468 385.464 121.117 385.092 120.694 384.816C119.892 384.351 119.242 384.726 119.242 385.655C119.27 386.16 119.416 386.651 119.668 387.089C119.921 387.526 120.272 387.898 120.694 388.174C121.497 388.639 122.147 388.264 122.147 387.334Z" stroke="black" stroke-width="1.44" stroke-linecap="round" stroke-linejoin="round"/>
<path d="M101.951 365.979C101.951 352.693 92.6615 336.569 81.2007 329.902" stroke="black" stroke-width="1.44" stroke-linecap="round" stroke-linejoin="round"/>
<path d="M129.645 383.31L139.355 388.93" stroke="black" stroke-width="1.44" stroke-linecap="round" stroke-linejoin="round"/>
<path d="M129.645 371.238V383.31L133.462 381.104L139.355 384.518" stroke="black" stroke-width="1.44" stroke-linecap="round" stroke-linejoin="round"/>
<path d="M129.645 371.238L133.462 369.032V381.104" stroke="black" stroke-width="1.44" stroke-linecap="round" stroke-linejoin="round"/>
<path d="M129.645 356.793V367.242L133.462 365.036V359" stroke="black" stroke-width="1.44" stroke-linecap="round" stroke-linejoin="round"/>
<path d="M136.948 355.003L133.462 353.005" stroke="black" stroke-width="1.44" stroke-linecap="round" stroke-linejoin="round"/>
<path d="M144.543 379.897V375.859" stroke="black" stroke-width="1.44" stroke-linecap="round" stroke-linejoin="round"/>
<path d="M122.465 373.098C122.432 372.469 122.251 371.858 121.937 371.313C121.623 370.768 121.186 370.305 120.66 369.962C119.664 369.386 118.855 369.851 118.855 371.002C118.888 371.631 119.069 372.242 119.383 372.787C119.697 373.332 120.134 373.795 120.66 374.138C121.656 374.714 122.465 374.249 122.465 373.098Z" stroke="black" stroke-width="1.44" stroke-linecap="round" stroke-linejoin="round"/>
<path d="M112.339 334.73L91.5064 322.658V327.113L112.339 339.143V334.73Z" stroke="black" stroke-width="1.44" stroke-linecap="round" stroke-linejoin="round"/>
<path d="M70.7152 310.628L49.9239 298.597V303.01L70.7152 315.04V310.628Z" stroke="black" stroke-width="1.44" stroke-linecap="round" stroke-linejoin="round"/>
<path d="M157.74 329.693L153.922 331.9L12.1594 249.809" stroke="black" stroke-width="1.44" stroke-linecap="round" stroke-linejoin="round"/>
<path d="M51.0029 368.657L12.1594 346.178V249.809L15.9773 247.603L150.685 325.614" stroke="black" stroke-width="1.44" stroke-linecap="round" stroke-linejoin="round"/>
<path d="M76.8433 386.481C82.6325 390.783 88.5392 393.211 93.8581 393.468" stroke="black" stroke-width="1.44" stroke-linecap="round" stroke-linejoin="round"/>
<path d="M157.74 426.062L153.922 428.268L93.8304 393.468" stroke="black" stroke-width="1.44" stroke-linecap="round" stroke-linejoin="round"/>
<path d="M153.922 331.9V428.269" stroke="black" stroke-width="1.44" stroke-linecap="round" stroke-linejoin="round"/>
<path d="M157.74 329.694V426.062" stroke="black" stroke-width="1.44" stroke-linecap="round" stroke-linejoin="round"/>
<path d="M136.782 367.117L139.355 370.364" stroke="black" stroke-width="1.44" stroke-linecap="round" stroke-linejoin="round"/>
<path d="M22.2022 250.767L21.8288 251.018" stroke="black" stroke-width="1.44" stroke-linecap="round" stroke-linejoin="round"/>
<path d="M137.453 383.394C137.538 382.989 137.527 382.57 137.42 382.171C137.313 381.772 137.113 381.404 136.838 381.097" stroke="black" stroke-width="1.44" stroke-linecap="round" stroke-linejoin="round"/>
<path d="M133.462 376.941L136.824 381.104" stroke="black" stroke-width="1.44" stroke-linecap="round" stroke-linejoin="round"/>
<path d="M133.462 369.948L139.355 377.316" stroke="black" stroke-width="1.44" stroke-linecap="round" stroke-linejoin="round"/>
<path d="M139.357 383.935L139.065 384.353" stroke="black" stroke-width="1.44" stroke-linecap="round" stroke-linejoin="round"/>
<path d="M133.462 353.005L136.948 355.003" stroke="black" stroke-width="1.44" stroke-linecap="round" stroke-linejoin="round"/>
<path d="M144.543 375.859V379.897" stroke="black" stroke-width="1.44" stroke-linecap="round" stroke-linejoin="round"/>
<path d="M133.462 359V365.036L129.645 367.242V371.238L139.355 365.618" stroke="black" stroke-width="1.44" stroke-linecap="round" stroke-linejoin="round"/>
<path d="M295.684 346.178L299.502 343.972L299.004 343.098" stroke="black" stroke-width="1.44" stroke-linecap="round" stroke-linejoin="round"/>
<path d="M299.502 408.204V343.972" stroke="black" stroke-width="1.44" stroke-linecap="round" stroke-linejoin="round"/>
<path d="M299.502 408.204L295.684 410.41V346.178" stroke="black" stroke-width="1.44" stroke-linecap="round" stroke-linejoin="round"/>
<path d="M68.6402 440.715L69.0137 440.923V390.72" stroke="black" stroke-width="1.44" stroke-linecap="round" stroke-linejoin="round"/>
<path d="M23.9452 364.619V410.785" stroke="black" stroke-width="1.44" stroke-linecap="round" stroke-linejoin="round"/>
<path d="M27.7632 362.413V408.578" stroke="black" stroke-width="1.44" stroke-linecap="round" stroke-linejoin="round"/>
<path d="M52.2479 374.61L29.4647 361.414L23.9452 364.619" stroke="black" stroke-width="1.44" stroke-linecap="round" stroke-linejoin="round"/>
<path d="M69.0137 390.72L66.4822 386.349" stroke="black" stroke-width="1.44" stroke-linecap="round" stroke-linejoin="round"/>
<path d="M150.104 457.366L149.398 457.783L145.58 455.576V424.231L146.286 423.856" stroke="black" stroke-width="1.44" stroke-linecap="round" stroke-linejoin="round"/>
<path d="M145.58 424.231L93.9964 394.342L94.6604 393.967" stroke="black" stroke-width="1.44" stroke-linecap="round" stroke-linejoin="round"/>
<path d="M76.1032 386.71C82.1829 391.393 88.4147 394.05 94.0172 394.342" stroke="black" stroke-width="1.44" stroke-linecap="round" stroke-linejoin="round"/>
<path d="M51.0444 369.49L16.6413 349.592L17.3468 349.175" stroke="black" stroke-width="1.44" stroke-linecap="round" stroke-linejoin="round"/>
<path d="M18.3843 414.032L12.8234 410.785V378.69L16.6413 380.896V349.592" stroke="black" stroke-width="1.44" stroke-linecap="round" stroke-linejoin="round"/>
<path d="M66.5652 441.922L149.398 489.878L150.104 489.503" stroke="black" stroke-width="1.44" stroke-linecap="round" stroke-linejoin="round"/>
<path d="M149.398 457.783V489.878" stroke="black" stroke-width="1.44" stroke-linecap="round" stroke-linejoin="round"/>
<path d="M69.0137 440.507L44.861 454.494" stroke="black" stroke-width="1.44" stroke-linecap="round" stroke-linejoin="round"/>
<path d="M31.0001 454.494H44.861V450.082L69.0137 436.095" stroke="black" stroke-width="1.44" stroke-linecap="round" stroke-linejoin="round"/>
<path d="M0.498001 436.802L31.0001 454.494V450.082H44.861" stroke="black" stroke-width="1.44" stroke-linecap="round" stroke-linejoin="round"/>
<path d="M0.498001 436.802V432.39L31.0001 450.082" stroke="black" stroke-width="1.44" stroke-linecap="round" stroke-linejoin="round"/>
<path d="M27.7632 408.037L28.2197 408.329L0.498001 424.356V432.39" stroke="black" stroke-width="1.44" stroke-linecap="round" stroke-linejoin="round"/>
<path d="M16.6413 349.592L12.8234 347.385V378.69L16.6413 380.896V349.592Z" stroke="black" stroke-width="1.44" stroke-linecap="round" stroke-linejoin="round"/>
<path d="M12.8234 347.387L13.5289 346.969" stroke="black" stroke-width="1.44" stroke-linecap="round" stroke-linejoin="round"/>
<path d="M17.3468 349.175L16.6413 349.593" stroke="black" stroke-width="1.44" stroke-linecap="round" stroke-linejoin="round"/>
<path d="M150.104 457.366L149.398 457.783L145.58 455.577" stroke="black" stroke-width="1.44" stroke-linecap="round" stroke-linejoin="round"/>
<path d="M145.58 455.576V424.231L149.398 426.437V457.783" stroke="black" stroke-width="1.44" stroke-linecap="round" stroke-linejoin="round"/>
<path d="M149.398 426.438L150.104 426.062" stroke="black" stroke-width="1.44" stroke-linecap="round" stroke-linejoin="round"/>
<path d="M146.286 423.856L145.58 424.232" stroke="black" stroke-width="1.44" stroke-linecap="round" stroke-linejoin="round"/>
<path d="M216.295 356.044L236.962 344.097V339.809" stroke="black" stroke-width="1.44" stroke-linecap="round" stroke-linejoin="round"/>
<path d="M49.9239 298.597V303.01L70.7152 315.04V310.628L49.9239 298.597Z" stroke="black" stroke-width="1.44" stroke-linecap="round" stroke-linejoin="round"/>
<path d="M91.5064 322.658V327.113L112.339 339.143V334.73L91.5064 322.658Z" stroke="black" stroke-width="1.44" stroke-linecap="round" stroke-linejoin="round"/>
<path d="M101.951 365.979C101.951 352.693 92.6615 336.569 81.2007 329.902" stroke="black" stroke-width="1.44" stroke-linecap="round" stroke-linejoin="round"/>
<path d="M78.939 385.697C90.6972 390.061 98.7896 382.096 97.3648 367.512C95.94 352.929 85.489 336.791 73.5786 330.665C61.6683 324.539 52.324 330.665 52.324 344.541" stroke="black" stroke-width="1.44" stroke-linecap="round" stroke-linejoin="round"/>
<path d="M78.9321 385.685L78.8491 385.56L78.7661 385.434L78.6831 385.309L78.5586 385.225" stroke="black" stroke-width="1.44" stroke-linecap="round" stroke-linejoin="round"/>
<path d="M68.1975 331.546C62.5882 329.978 57.8227 331.477 54.9869 335.709C52.1511 339.941 51.5286 346.49 53.2162 353.886" stroke="black" stroke-width="1.44" stroke-linecap="round" stroke-linejoin="round"/>
<path d="M78.9459 334.564C76.4301 332.5 73.5965 330.86 70.5561 329.707" stroke="black" stroke-width="1.44" stroke-linecap="round" stroke-linejoin="round"/>
<path d="M78.5586 337.478L78.6831 336.77L78.7661 336.021L78.8491 335.313L78.9321 334.564" stroke="black" stroke-width="1.44" stroke-linecap="round" stroke-linejoin="round"/>
<path d="M78.5724 385.184C88.0481 387.959 94.7088 381.971 94.7157 370.669C94.7226 359.367 88.062 345.693 78.5932 337.485" stroke="black" stroke-width="1.44" stroke-linecap="round" stroke-linejoin="round"/>
<path d="M78.5586 337.478L78.851 338.144" stroke="black" stroke-width="1.44" stroke-linecap="round" stroke-linejoin="round"/>
<path d="M78.8906 338.102C77.2568 353.635 77.2568 369.297 78.8906 384.83" stroke="black" stroke-width="1.44" stroke-linecap="round" stroke-linejoin="round"/>
<path d="M78.851 384.892L78.5586 385.227" stroke="black" stroke-width="1.44" stroke-linecap="round" stroke-linejoin="round"/>
<path d="M95.3936 382.762C104.219 377.649 104.212 361.074 95.3936 345.734C86.5749 330.394 72.2438 322.096 63.4251 327.196" stroke="black" stroke-width="1.44" stroke-linecap="round" stroke-linejoin="round"/>
<path d="M70.5769 329.687C62.6643 335.348 55.8376 345.235 52.7182 355.524C49.5988 365.813 50.6432 375.006 55.4849 379.55" stroke="black" stroke-width="1.44" stroke-linecap="round" stroke-linejoin="round"/>
<path d="M78.9598 334.557C67.7756 342.55 59.3374 358.417 59.3305 371.467C59.3236 384.518 67.7618 390.602 78.9459 385.628" stroke="black" stroke-width="1.44" stroke-linecap="round" stroke-linejoin="round"/>
<path d="M78.8837 338.123C69.2004 345.859 62.1732 359.735 62.1732 371.162C62.1732 382.589 69.1797 388.333 78.8698 384.837" stroke="black" stroke-width="1.44" stroke-linecap="round" stroke-linejoin="round"/>
<path d="M52.2894 346.137V344.513" stroke="black" stroke-width="1.44" stroke-linecap="round" stroke-linejoin="round"/>
<path d="M95.3659 382.769L90.8839 385.35" stroke="black" stroke-width="1.44" stroke-linecap="round" stroke-linejoin="round"/>
<path d="M63.4113 327.237L58.8878 329.86" stroke="black" stroke-width="1.44" stroke-linecap="round" stroke-linejoin="round"/>
<path d="M55.471 379.598C59.0555 382.954 63.3597 385.439 68.0523 386.863" stroke="black" stroke-width="1.44" stroke-linecap="round" stroke-linejoin="round"/>
<path d="M31.4566 73.5982L27.6802 71.392L17.2638 77.428L21.0818 79.6343L31.4566 73.5982Z" stroke="black" stroke-width="1.44" stroke-linecap="round" stroke-linejoin="round"/>
<path d="M12.1594 100.448L8.34142 98.242V109.482L12.1594 111.688V100.448Z" stroke="black" stroke-width="1.44" stroke-linecap="round" stroke-linejoin="round"/>
<path d="M162.844 166.137V161.725L159.026 159.518" stroke="black" stroke-width="1.44" stroke-linecap="round" stroke-linejoin="round"/>
<path d="M162.844 161.725L173.26 155.73L169.443 153.524L159.026 159.518" stroke="black" stroke-width="1.44" stroke-linecap="round" stroke-linejoin="round"/>
<path d="M173.26 155.73V160.143L177.659 157.562L172.513 194.278L157.74 202.853V191.614L153.922 193.82L150.104 191.614" stroke="black" stroke-width="1.44" stroke-linecap="round" stroke-linejoin="round"/>
<path d="M150.104 191.614V180.374L153.922 182.58V193.82" stroke="black" stroke-width="1.44" stroke-linecap="round" stroke-linejoin="round"/>
<path d="M153.922 182.58L157.74 180.374V169.134L162.844 166.137" stroke="black" stroke-width="1.44" stroke-linecap="round" stroke-linejoin="round"/>
<path d="M128.268 89.7915C124.623 91.8729 124.623 95.3419 128.268 97.4233C131.913 99.5047 137.799 99.5047 141.41 97.4233C145.02 95.3419 145.055 91.8729 141.41 89.7915C137.765 87.7101 131.879 87.7101 128.268 89.7915Z" stroke="black" stroke-width="1.44" stroke-linecap="round" stroke-linejoin="round"/>
<path d="M143.353 95.8484C141.852 93.9127 138.512 92.6639 134.853 92.6639C131.194 92.6639 127.853 93.9127 126.352 95.8484" stroke="black" stroke-width="1.44" stroke-linecap="round" stroke-linejoin="round"/>
<path d="M173.26 160.143L295.684 89.2087V84.7962L150.104 0.499542L27.6802 71.392" stroke="black" stroke-width="1.44" stroke-linecap="round" stroke-linejoin="round"/>
<path d="M173.26 160.143V155.73L295.684 84.7962" stroke="black" stroke-width="1.44" stroke-linecap="round" stroke-linejoin="round"/>
<path d="M157.74 169.134L162.844 166.137V161.725L159.026 159.518L169.443 153.524L173.26 155.73" stroke="black" stroke-width="1.44" stroke-linecap="round" stroke-linejoin="round"/>
<path d="M157.74 169.134V164.722L162.844 161.725" stroke="black" stroke-width="1.44" stroke-linecap="round" stroke-linejoin="round"/>
<path d="M27.6802 71.392L31.4566 73.5982L21.0818 79.6343L17.2638 77.428L12.1594 80.3836L157.74 164.722" stroke="black" stroke-width="1.44" stroke-linecap="round" stroke-linejoin="round"/>
<path d="M12.1594 111.688L8.34142 109.482" stroke="black" stroke-width="1.44" stroke-linecap="round" stroke-linejoin="round"/>
<path d="M8.34142 98.242L12.1594 100.448V111.688" stroke="black" stroke-width="1.44" stroke-linecap="round" stroke-linejoin="round"/>
<path d="M12.1594 80.3836L157.74 164.722V180.374" stroke="black" stroke-width="1.44" stroke-linecap="round" stroke-linejoin="round"/>
<path d="M157.74 202.853V191.614" stroke="black" stroke-width="1.44" stroke-linecap="round" stroke-linejoin="round"/>
<path d="M8.34142 98.242V82.5899L12.1594 80.3836" stroke="black" stroke-width="1.44" stroke-linecap="round" stroke-linejoin="round"/>
<path d="M157.74 191.614L153.922 193.82L150.104 191.614" stroke="black" stroke-width="1.44" stroke-linecap="round" stroke-linejoin="round"/>
<path d="M150.104 191.614V180.374L153.922 182.58L157.74 180.374" stroke="black" stroke-width="1.44" stroke-linecap="round" stroke-linejoin="round"/>
<path d="M157.74 164.722L153.922 166.928V182.58" stroke="black" stroke-width="1.44" stroke-linecap="round" stroke-linejoin="round"/>
<path d="M153.922 193.82V205.059L157.74 202.853" stroke="black" stroke-width="1.44" stroke-linecap="round" stroke-linejoin="round"/>
<path d="M153.922 205.059L8.34142 120.721V109.482" stroke="black" stroke-width="1.44" stroke-linecap="round" stroke-linejoin="round"/>
<path d="M8.34142 82.5899L153.922 166.928" stroke="black" stroke-width="1.44" stroke-linecap="round" stroke-linejoin="round"/>
<path d="M195.172 163.515L198.99 161.308V153.274L195.172 155.48V163.515Z" stroke="black" stroke-width="1.44" stroke-linecap="round" stroke-linejoin="round"/>
<path d="M133.462 369.948L139.355 377.316" stroke="black" stroke-width="1.44" stroke-linecap="round" stroke-linejoin="round"/>
<path d="M139.357 383.935L139.065 384.353" stroke="black" stroke-width="1.44" stroke-linecap="round" stroke-linejoin="round"/>
<path d="M136.782 367.117L139.355 370.364" stroke="black" stroke-width="1.44" stroke-linecap="round" stroke-linejoin="round"/>
<path d="M139.812 384.476L139.77 384.268L139.646 384.101L139.438 384.018H139.272L139.065 384.101L138.94 384.268L138.899 384.476L138.94 384.684L139.065 384.851L139.272 384.934H139.438L139.646 384.851L139.77 384.684L139.812 384.476Z" fill="black"/>
<path d="M125.827 351.382L141.804 360.623" stroke="black" stroke-width="1.44" stroke-linecap="round" stroke-linejoin="round"/>
<path d="M142.841 358.791L126.864 349.592" stroke="black" stroke-width="1.44" stroke-linecap="round" stroke-linejoin="round"/>
<path d="M125.495 350.383V351.59" stroke="black" stroke-width="1.44" stroke-linecap="round" stroke-linejoin="round"/>
<path d="M125.84 351.389C125.661 351.277 125.508 351.389 125.515 351.584" stroke="black" stroke-width="1.44" stroke-linecap="round" stroke-linejoin="round"/>
<path d="M126.885 349.536C126.117 349.092 125.501 349.453 125.501 350.348" stroke="black" stroke-width="1.44" stroke-linecap="round" stroke-linejoin="round"/>
<path d="M125.495 385.308V351.59" stroke="black" stroke-width="1.44" stroke-linecap="round" stroke-linejoin="round"/>
<path d="M125.515 385.302C125.523 385.418 125.558 385.532 125.616 385.633C125.675 385.734 125.757 385.82 125.854 385.884" stroke="black" stroke-width="1.44" stroke-linecap="round" stroke-linejoin="round"/>
<path d="M142.841 395.757L141.804 395.133L125.827 385.891" stroke="black" stroke-width="1.44" stroke-linecap="round" stroke-linejoin="round"/>
<path d="M141.832 395.126C142.011 395.238 142.164 395.126 142.157 394.931" stroke="black" stroke-width="1.44" stroke-linecap="round" stroke-linejoin="round"/>
<path d="M142.897 395.729C143.664 396.173 144.28 395.813 144.28 394.918" stroke="black" stroke-width="1.44" stroke-linecap="round" stroke-linejoin="round"/>
<path d="M142.136 361.206V394.925" stroke="black" stroke-width="1.44" stroke-linecap="round" stroke-linejoin="round"/>
<path d="M144.211 394.925V361.206" stroke="black" stroke-width="1.44" stroke-linecap="round" stroke-linejoin="round"/>
<path d="M142.157 361.192C142.149 361.075 142.114 360.962 142.056 360.861C141.997 360.759 141.915 360.673 141.818 360.609" stroke="black" stroke-width="1.44" stroke-linecap="round" stroke-linejoin="round"/>
<path d="M144.28 361.192C144.256 360.708 144.118 360.236 143.877 359.815C143.637 359.394 143.301 359.037 142.897 358.771" stroke="black" stroke-width="1.44" stroke-linecap="round" stroke-linejoin="round"/>
<path d="M127.258 349.329C127.118 349.226 126.953 349.163 126.78 349.146C126.608 349.128 126.434 349.158 126.276 349.231" stroke="black" stroke-width="1.44" stroke-linecap="round" stroke-linejoin="round"/>
<path d="M127.238 349.384L143.173 358.625" stroke="black" stroke-width="1.44" stroke-linecap="round" stroke-linejoin="round"/>
<path d="M128.275 384.101V356.002L139.355 362.413V390.512L128.275 384.101Z" stroke="black" stroke-width="1.44" stroke-linecap="round" stroke-linejoin="round"/>
<path d="M139.355 388.93L129.645 383.31L128.275 384.101" stroke="black" stroke-width="1.44" stroke-linecap="round" stroke-linejoin="round"/>
<path d="M129.645 383.31V356.793" stroke="black" stroke-width="1.44" stroke-linecap="round" stroke-linejoin="round"/>
<path d="M144.591 360.991C144.567 360.506 144.429 360.035 144.189 359.614C143.948 359.193 143.612 358.835 143.208 358.569" stroke="black" stroke-width="1.44" stroke-linecap="round" stroke-linejoin="round"/>
<path d="M144.543 360.998V394.758" stroke="black" stroke-width="1.44" stroke-linecap="round" stroke-linejoin="round"/>
<path d="M144.176 395.618C144.319 395.517 144.433 395.38 144.506 395.22C144.579 395.06 144.608 394.884 144.591 394.709" stroke="black" stroke-width="1.44" stroke-linecap="round" stroke-linejoin="round"/>
<path d="M126.242 349.259L125.91 349.468" stroke="black" stroke-width="1.44" stroke-linecap="round" stroke-linejoin="round"/>
<path d="M144.169 395.632L143.796 395.841" stroke="black" stroke-width="1.44" stroke-linecap="round" stroke-linejoin="round"/>
<path d="M295.684 153.441L299.502 151.234V119.139L295.684 121.346V153.441Z" stroke="black" stroke-width="1.44" stroke-linecap="round" stroke-linejoin="round"/>
<path d="M295.684 217.714L299.502 215.466V183.371L295.684 185.577V217.714Z" stroke="black" stroke-width="1.44" stroke-linecap="round" stroke-linejoin="round"/>
<path d="M295.684 281.946L299.502 279.74V247.603L295.684 249.809V281.946Z" stroke="black" stroke-width="1.44" stroke-linecap="round" stroke-linejoin="round"/>
<path d="M295.684 345.013L299.502 342.806V311.835L295.684 314.041V345.013Z" stroke="black" stroke-width="1.44" stroke-linecap="round" stroke-linejoin="round"/>
<path d="M17.3122 246.063C17.255 246.551 17.3317 247.045 17.5341 247.493C17.7364 247.94 18.0567 248.324 18.4604 248.602" stroke="black" stroke-width="1.44" stroke-linecap="round" stroke-linejoin="round"/>
<path d="M32.8676 134.958L17.3053 246.105" stroke="black" stroke-width="1.44" stroke-linecap="round" stroke-linejoin="round"/>
<path d="M18.4258 248.602L150.726 325.239" stroke="black" stroke-width="1.44" stroke-linecap="round" stroke-linejoin="round"/>
<path d="M8.34142 343.972V408.204L12.1594 410.41L12.8234 409.994" stroke="black" stroke-width="1.44" stroke-linecap="round" stroke-linejoin="round"/>
<path d="M12.1594 341.766L8.34142 343.972L12.1594 346.178V410.41" stroke="black" stroke-width="1.44" stroke-linecap="round" stroke-linejoin="round"/>
<path d="M24.7337 130.254L8.34142 247.603L12.1594 249.809L15.9773 247.603" stroke="black" stroke-width="1.44" stroke-linecap="round" stroke-linejoin="round"/>
<path d="M28.5517 132.46L12.1594 249.809" stroke="black" stroke-width="1.44" stroke-linecap="round" stroke-linejoin="round"/>
<path d="M69.0137 407.205L66.3993 405.665V425.771L69.0137 427.27" stroke="black" stroke-width="1.44" stroke-linecap="round" stroke-linejoin="round"/>
<path d="M66.3993 405.665L69.0137 401.169" stroke="black" stroke-width="1.44" stroke-linecap="round" stroke-linejoin="round"/>
<path d="M66.3992 425.355L27.7632 403" stroke="black" stroke-width="1.44" stroke-linecap="round" stroke-linejoin="round"/>
<path d="M27.7632 398.962L66.3992 421.358" stroke="black" stroke-width="1.44" stroke-linecap="round" stroke-linejoin="round"/>
<path d="M27.7632 396.132L54.1569 378.148" stroke="black" stroke-width="1.44" stroke-linecap="round" stroke-linejoin="round"/>
</g>
<defs>
<clipPath id="clip0_5_1293">
<rect width="300" height="493" fill="white"/>
</clipPath>
</defs>
</svg>
